<svg viewBox="0 0 1920 1080" xmlns="http://www.w3.org/2000/svg">
  <path d="M1279.6935334975856,582.9999999999999C1285.4525450672204,631.674920606068,1282.1339900115847,712.1160832063176,1242.7050983124843,762.335575687742C1203.276206613384,812.5550681691664,1101.688549407145,872.8200583550786,1043.1201833029836,884.316954888546C984.5518171988222,895.8138514220134,945.432448623427,860.6539689121227,891.2949016875158,831.3169548885461C837.1573547516045,801.9799408649695,753.5107186354351,752.8476965618445,718.2949016875158,708.2948707470867C683.0790847395965,663.742044932329,662.5649308306301,618.9384077391381,680,564C697.4350691693699,509.0615922608619,783.272446875597,405.1281148558743,822.905316703735,378.6644243122581C862.5381865318731,352.20073376864195,874.1639220340367,418.5480866051037,917.7972189688281,405.217856738303C961.4305159036196,391.8876268715023,1036.3127966581762,287.8383458926155,1084.705098312484,298.6830451114539C1133.097399966792,309.5277443302923,1175.6529563638248,422.8998929032423,1208.1510288946752,470.2860520513333C1240.6491014255255,517.6722111994243,1273.9345219279508,534.3250793939318,1279.6935334975856,582.9999999999999C1285.4525450672204,631.674920606068,1282.1339900115847,712.1160832063176,1242.7050983124843,762.335575687742" fill="current"/>
</svg>
