<svg viewBox="0 0 1920 1080" xmlns="http://www.w3.org/2000/svg">
  <path d="M1277,554.9999999999999C1269.8333333333335,613.1118585625806,1245.254248593737,697.1160832063176,1217.7050983124843,742.335575687742C1190.1559480312317,787.5550681691664,1162.0686711362937,827.5752898925466,1111.7050983124843,826.316954888546C1061.341525488675,825.0586198845454,965.7189882529096,743.7824621972057,915.5236613696275,734.7855656637385C865.3283344863453,725.7886691302712,849.7870805743959,803.7998366316984,810.5331370127913,772.335575687742C771.2791934511866,740.8713147437855,668.7792021810225,611.4451918959139,680,546C691.2207978189775,480.554808104086,840.3087736454039,419.7172501270158,877.8579239266566,379.6644243122581C915.4070742079092,339.61159849750044,871.8203726232111,322.0132749782547,905.2949016875157,305.68304511145396C938.7694307518202,289.35281524465324,1019.470065541656,267.0194819113199,1078.705098312484,281.6830451114539C1137.9401310833123,296.34660831158794,1227.6559480312314,348.1115984975003,1260.705098312484,393.664424312258C1293.7542485937367,439.2172501270157,1284.1666666666665,496.8881414374192,1277,554.9999999999999C1269.8333333333335,613.1118585625806,1245.254248593737,697.1160832063176,1217.7050983124843,742.335575687742" fill="current"/>
</svg>
