<svg viewBox="0 0 1920 1080" xmlns="http://www.w3.org/2000/svg">
  <path d="M1277,565.9999999999999C1252.2732378974667,623.0080357616712,1145.868524580727,677.6598130675277,1109.3445256972846,727.7126388822854C1072.8205268138422,777.7654646970432,1095.2708140281898,849.8829022208358,1057.8560066993462,866.316954888546C1020.4411993705025,882.7510075562561,939.1158658928615,850.4805180886801,884.8556817242231,826.3169548885461C830.5954975555848,802.1533916884121,763.4375153082196,765.3884015024996,732.2949016875158,721.335575687742C701.1522880668119,677.2827498729844,700.5,611.7785252292473,698,562C695.5,512.2214747707527,671.9204593998845,472.0505834603491,717.2949016875157,422.6644243122581C762.6693439751468,373.2782651641671,906.1782876216254,281.7541019672395,970.2466537257868,265.68304511145396C1034.3150198299481,249.61198825566842,1053.7953575480346,306.2411866440776,1101.705098312484,326.2380831775449C1149.6148390769335,346.2349797110123,1228.4892813645647,345.70410484184885,1257.705098312484,385.664424312258C1286.9209152604035,425.62474378266717,1301.7267621025333,508.99196423832865,1277,565.9999999999999C1252.2732378974667,623.0080357616712,1145.868524580727,677.6598130675277,1109.3445256972846,727.7126388822854" fill="current"/>
</svg>
