<svg viewBox="0 0 1920 1080" xmlns="http://www.w3.org/2000/svg">
  <path d="M1258.697924824829,564.9999999999999C1274.9812477606458,664.015695874551,1464.1113996658426,822.5277957513545,1434.7339220468475,890.5872574535483C1405.3564444278525,958.6467191557422,1186.0943664598074,984.44303970082,1082.4330591108583,973.3567702131631C978.7717517619092,962.2705007255063,877.8070569862439,839.3645593208764,812.7660779531527,824.0696405276074C747.7250989200616,808.7747217343383,750.9815312378365,927.932197541483,692.1871849123111,881.5872574535484C633.3928385867856,835.2423173656139,450.04203933830934,640.8124318439798,460,546C469.95796066169066,451.1875681560202,688.3072692235963,390.16602149547106,751.934948882455,312.7126663896696C815.5626285413138,235.25931128386816,784.1692773734014,88.01612039734438,841.7660779531525,81.27986936519142C899.3628785329036,74.54361833303845,1014.9711012811626,236.42629138991023,1097.5157523609616,272.29516019675185C1180.0604034407606,308.16402900359344,1310.1702890213016,247.70894223903312,1337.0339844319462,296.4930822062411C1363.8976798425908,345.2772221734491,1242.4146018890121,465.98430412544866,1258.697924824829,564.9999999999999C1274.9812477606458,664.015695874551,1464.1113996658426,822.5277957513545,1434.7339220468475,890.5872574535483" fill="current"/>
</svg>
