<svg viewBox="0 0 1920 1080" xmlns="http://www.w3.org/2000/svg">
  <path d="M1494,547.9999999999999C1464.7199508605354,633.7753199719097,1333.1430561624973,667.6805505354172,1266.0536272100603,753.0646623779098C1198.9641982576234,838.4487742204025,1168.1780178281963,1019.1600005182269,1091.4634262853783,1060.3046710549556C1014.7488347425603,1101.4493415916843,857.5244706168675,1045.2056475875813,805.7660779531527,999.9326855982822C754.007685289438,954.6597236089831,839.8740832952819,862.3223467188745,780.9130703030899,788.6668991191608C721.9520573108978,715.0114515194471,465.666463222911,641.6203526863638,452,558.0000000000001C438.333536777089,474.3796473136364,635.4532779734318,326.83431817394876,698.9142909656239,286.9447830009783C762.375303957816,247.05524782800788,767.3219300150715,319.95700005341945,832.7660779531525,318.66278896217756C898.2102258912334,317.36857787093567,990.0845379118269,292.55452418948124,1091.5791785941094,279.1795164535269C1193.073819276392,265.80450871757256,1374.6637851458654,193.60932862203936,1441.7339220468473,238.4127425464515C1508.8040589478292,283.21615647086367,1523.2800491394646,462.2246800280902,1494,547.9999999999999C1464.7199508605354,633.7753199719097,1333.1430561624973,667.6805505354172,1266.0536272100603,753.0646623779098" fill="current"/>
</svg>
